<?xml version="1.0" encoding="UTF-8"?>
<svg version="1.1" xmlns="http://www.w3.org/2000/svg" width="372" height="594">
<path d="M0 0 C2.37691488 2.10077779 4.72688366 4.2284676 7.0625 6.375 C7.90425781 7.14457031 8.74601562 7.91414063 9.61328125 8.70703125 C28.33670601 26.63229936 43.42012083 51.0398797 52.0625 75.375 C52.28389648 75.99810059 52.50529297 76.62120117 52.73339844 77.26318359 C58.30113045 93.21011647 62.15648617 110.39799498 62.265625 127.328125 C62.27268463 128.06185837 62.27974426 128.79559174 62.28701782 129.55155945 C62.51851922 160.69630968 62.51851922 160.69630968 59.0625 175.375 C58.86914062 176.20918457 58.67578125 177.04336914 58.4765625 177.90283203 C55.21241978 191.48075904 50.17863234 203.85961823 44.0625 216.375 C43.47524078 217.58853746 42.88834757 218.80225208 42.30175781 220.01611328 C30.84500141 243.67400888 18.07798032 266.09865675 3.59277344 288.04931641 C1.22760712 291.64385602 -1.10480261 295.25934029 -3.4375 298.875 C-6.31302205 303.32594942 -9.19470256 307.77271862 -12.08984375 312.2109375 C-22.18297228 327.68696736 -32.24500271 343.19241969 -41.61181641 359.12255859 C-42.57419985 360.75772427 -43.54054249 362.39056178 -44.50927734 364.02197266 C-78.14462875 420.76791161 -104.45279923 481.46913237 -116.5078125 546.56884766 C-116.9375 548.375 -116.9375 548.375 -117.9375 549.375 C-119.79037502 549.44726502 -121.64583878 549.4588122 -123.5 549.4375 C-124.51191406 549.42847656 -125.52382812 549.41945313 -126.56640625 549.41015625 C-127.74009766 549.39275391 -127.74009766 549.39275391 -128.9375 549.375 C-130.32211031 545.37799472 -131.46561315 541.40960276 -132.41796875 537.2890625 C-132.69116943 536.12334717 -132.96437012 534.95763184 -133.24584961 533.7565918 C-133.53596924 532.5169165 -133.82608887 531.27724121 -134.125 530 C-137.29226807 516.65511804 -140.86798951 503.47505365 -144.9375 490.375 C-145.2267334 489.43479004 -145.5159668 488.49458008 -145.81396484 487.52587891 C-154.9018144 458.26731418 -167.28650004 430.49975077 -181.03381348 403.17456055 C-181.87434124 401.5007715 -182.70843094 399.82375369 -183.54199219 398.14648438 C-191.20712315 382.75558859 -199.96883103 368.11188366 -209.00732422 353.50390625 C-210.6670888 350.81334934 -212.31072043 348.114484 -213.94140625 345.40625 C-220.74959557 334.10855748 -227.94497431 323.07672317 -235.18310547 312.05078125 C-238.98300092 306.25522682 -242.74777486 300.43713583 -246.49804688 294.609375 C-247.51047708 293.03784154 -248.52498887 291.46764812 -249.54101562 289.8984375 C-258.77226832 275.63098812 -267.53658551 261.14636992 -275.9375 246.375 C-276.61308564 245.19236405 -277.28870503 244.00974737 -277.96435547 242.82714844 C-290.30916747 221.17430989 -301.12434236 199.78057351 -306.9375 175.375 C-307.20433594 174.30040527 -307.20433594 174.30040527 -307.4765625 173.20410156 C-314.69938754 142.80804619 -310.91673668 107.60094496 -300.9375 78.375 C-300.71868164 77.71628906 -300.49986328 77.05757813 -300.27441406 76.37890625 C-285.45009487 32.22868422 -250.723846 -4.87372573 -209.55761719 -25.83691406 C-142.26329162 -58.98589956 -56.96427095 -49.2758857 0 0 Z " fill="#007E7E" transform="translate(309.9375,44.625)"/>
<path d="M0 0 C2.37691488 2.10077779 4.72688366 4.2284676 7.0625 6.375 C7.90425781 7.14457031 8.74601562 7.91414063 9.61328125 8.70703125 C28.33670601 26.63229936 43.42012083 51.0398797 52.0625 75.375 C52.28389648 75.99810059 52.50529297 76.62120117 52.73339844 77.26318359 C58.30113045 93.21011647 62.15648617 110.39799498 62.265625 127.328125 C62.27268463 128.06185837 62.27974426 128.79559174 62.28701782 129.55155945 C62.51851922 160.69630968 62.51851922 160.69630968 59.0625 175.375 C58.86914062 176.20918457 58.67578125 177.04336914 58.4765625 177.90283203 C55.21241978 191.48075904 50.17863234 203.85961823 44.0625 216.375 C43.47524078 217.58853746 42.88834757 218.80225208 42.30175781 220.01611328 C30.84500141 243.67400888 18.07798032 266.09865675 3.59277344 288.04931641 C1.22760712 291.64385602 -1.10480261 295.25934029 -3.4375 298.875 C-6.31302205 303.32594942 -9.19470256 307.77271862 -12.08984375 312.2109375 C-22.18297228 327.68696736 -32.24500271 343.19241969 -41.61181641 359.12255859 C-42.57419985 360.75772427 -43.54054249 362.39056178 -44.50927734 364.02197266 C-78.14462875 420.76791161 -104.45279923 481.46913237 -116.5078125 546.56884766 C-116.9375 548.375 -116.9375 548.375 -117.9375 549.375 C-119.79037502 549.44726502 -121.64583878 549.4588122 -123.5 549.4375 C-124.51191406 549.42847656 -125.52382812 549.41945313 -126.56640625 549.41015625 C-127.74009766 549.39275391 -127.74009766 549.39275391 -128.9375 549.375 C-130.32211031 545.37799472 -131.46561315 541.40960276 -132.41796875 537.2890625 C-132.69116943 536.12334717 -132.96437012 534.95763184 -133.24584961 533.7565918 C-133.53596924 532.5169165 -133.82608887 531.27724121 -134.125 530 C-137.29226807 516.65511804 -140.86798951 503.47505365 -144.9375 490.375 C-145.2267334 489.43479004 -145.5159668 488.49458008 -145.81396484 487.52587891 C-154.9018144 458.26731418 -167.28650004 430.49975077 -181.03381348 403.17456055 C-181.87434124 401.5007715 -182.70843094 399.82375369 -183.54199219 398.14648438 C-191.20712315 382.75558859 -199.96883103 368.11188366 -209.00732422 353.50390625 C-210.6670888 350.81334934 -212.31072043 348.114484 -213.94140625 345.40625 C-220.74959557 334.10855748 -227.94497431 323.07672317 -235.18310547 312.05078125 C-238.98300092 306.25522682 -242.74777486 300.43713583 -246.49804688 294.609375 C-247.51047708 293.03784154 -248.52498887 291.46764812 -249.54101562 289.8984375 C-258.77226832 275.63098812 -267.53658551 261.14636992 -275.9375 246.375 C-276.61308564 245.19236405 -277.28870503 244.00974737 -277.96435547 242.82714844 C-290.30916747 221.17430989 -301.12434236 199.78057351 -306.9375 175.375 C-307.20433594 174.30040527 -307.20433594 174.30040527 -307.4765625 173.20410156 C-314.69938754 142.80804619 -310.91673668 107.60094496 -300.9375 78.375 C-300.71868164 77.71628906 -300.49986328 77.05757813 -300.27441406 76.37890625 C-285.45009487 32.22868422 -250.723846 -4.87372573 -209.55761719 -25.83691406 C-142.26329162 -58.98589956 -56.96427095 -49.2758857 0 0 Z M-251.72265625 21.90234375 C-256.42744268 27.15477728 -260.70364428 32.74053357 -264.9375 38.375 C-265.576875 39.21933594 -266.21625 40.06367187 -266.875 40.93359375 C-279.18266852 57.82814799 -287.96591366 77.11642742 -292.9375 97.375 C-293.23382324 98.55231689 -293.23382324 98.55231689 -293.53613281 99.75341797 C-296.44055921 111.73477104 -297.30873639 123.52645281 -297.3125 135.8125 C-297.31419189 137.12677979 -297.31588379 138.44105957 -297.31762695 139.79516602 C-296.89473073 177.00769691 -282.98907821 207.76734976 -264.67431641 239.375 C-262.92266005 242.40063301 -261.18528543 245.43415008 -259.44921875 248.46875 C-252.5051086 260.55181105 -245.22951575 272.34448245 -237.53320312 283.96142578 C-234.87563488 287.98111973 -232.25030126 292.0216859 -229.625 296.0625 C-229.09640381 296.87565674 -228.56780762 297.68881348 -228.02319336 298.52661133 C-190.40397157 356.46234555 -156.09924954 414.84832723 -134 480.625 C-133.77229919 481.29888763 -133.54459839 481.97277527 -133.30999756 482.66708374 C-130.56446629 490.83100538 -128.15175427 498.98749519 -126.27760315 507.39971924 C-125.88969174 509.07287387 -125.42066279 510.72682665 -124.9375 512.375 C-124.2775 512.705 -123.6175 513.035 -122.9375 513.375 C-122.65253662 512.33049683 -122.65253662 512.33049683 -122.36181641 511.26489258 C-108.04616554 459.14657788 -87.34851521 408.70350901 -59.19580078 362.45019531 C-57.84478664 360.2220967 -56.51285615 357.98332667 -55.18359375 355.7421875 C-44.96521701 338.54515522 -34.49017468 321.4893893 -23.3046875 304.90234375 C-19.29994926 298.95838164 -15.43657276 292.92216874 -11.56103516 286.89355469 C-9.74948299 284.08333331 -7.92729507 281.2801333 -6.10546875 278.4765625 C6.19790279 259.48792552 17.27187501 240.2036577 27.4375 220 C27.82258728 219.23795258 28.20767456 218.47590515 28.60443115 217.69076538 C50.25477745 174.73340743 55.67543474 130.28295049 41.45703125 83.953125 C27.72045284 42.5573133 -3.9858127 6.97596966 -42.625 -12.75 C-51.443618 -17.12149331 -60.63546844 -20.44467368 -69.9375 -23.625 C-71.66806641 -24.22828125 -71.66806641 -24.22828125 -73.43359375 -24.84375 C-136.06067239 -45.48488453 -206.54851086 -24.4495261 -251.72265625 21.90234375 Z " fill="#000101" transform="translate(309.9375,44.625)"/>
<path d="M0 0 C12.20174262 9.46577525 21.73544528 23.4569287 24.36572266 38.83203125 C26.46182073 57.68518201 22.61098459 75.41129474 11.18212891 90.765625 C0.88948985 102.95116319 -13.75330617 111.45348943 -29.63427734 113.83203125 C-38.0761418 114.21820165 -46.51325466 114.4497968 -54.63427734 111.83203125 C-55.50310547 111.56390625 -56.37193359 111.29578125 -57.26708984 111.01953125 C-73.46460145 105.60532124 -86.46865716 94.95200315 -94.63427734 79.83203125 C-101.20866215 65.61188042 -103.87192886 46.61968941 -98.72412109 31.4609375 C-98.18464844 30.15962891 -98.18464844 30.15962891 -97.63427734 28.83203125 C-97.18181641 27.72730469 -96.72935547 26.62257812 -96.26318359 25.484375 C-88.69073146 8.79592532 -75.73219118 -2.5564525 -58.63427734 -9.16796875 C-57.80669922 -9.48894531 -56.97912109 -9.80992187 -56.12646484 -10.140625 C-37.40317552 -16.29583479 -15.75596504 -11.26031323 0 0 Z " fill="#000000" transform="translate(227.63427734375,140.16796875)"/>
</svg>
